<?xml version="1.0" standalone="no"?>
<!DOCTYPE svg PUBLIC "-//W3C//DTD SVG 20010904//EN"
 "http://www.w3.org/TR/2001/REC-SVG-20010904/DTD/svg10.dtd">
<svg version="1.0" xmlns="http://www.w3.org/2000/svg"
 width="300.000000pt" height="300.000000pt" viewBox="0 0 300.000000 300.000000"
 preserveAspectRatio="xMidYMid meet">
<metadata>
Created by potrace 1.10, written by Peter Selinger 2001-2011
</metadata>
<g transform="translate(0.000000,300.000000) scale(0.050000,-0.050000)"
fill="#000000" stroke="none">
<path d="M2710 5987 c-2536 -304 -3616 -3329 -1824 -5109 1886 -1873 5097
-545 5103 2112 5 1775 -1558 3203 -3279 2997z m-759 -1305 c152 -69 248 -244
219 -399 -87 -463 -810 -405 -810 64 0 283 314 461 591 335z m2140 -984 c331
-61 537 -267 630 -633 35 -136 39 -225 39 -878 l0 -727 -358 0 -359 0 -8 675
c-9 749 -15 790 -133 908 -138 138 -359 125 -515 -30 -122 -122 -127 -158
-127 -898 l0 -655 -360 0 -360 0 0 1100 0 1100 360 0 360 0 0 -153 0 -153 61
78 c178 227 459 324 770 266z m-1971 -1138 l0 -1100 -360 0 -360 0 0 1100 0
1100 360 0 360 0 0 -1100z"/>
</g>
</svg>
